<?xml version="1.0" encoding="UTF-8"?>
<svg xmlns="http://www.w3.org/2000/svg" viewBox="0 0 1024 1024" role="img" aria-label="Grokker">
<rect width="1024" height="1024" fill="#000000"/>
<circle cx="512.0" cy="512.0" r="132" fill="#FFFFFF"/>
<circle cx="512.0" cy="512.0" r="62" fill="#000000"/>
<path d="M 599.67,332.24 A 200,200 0 0 0 424.33,332.24 L 442.74,369.99 A 158,158 0 0 1 581.26,369.99 Z" fill="#FFFFFF"/>
<path d="M 691.76,599.67 A 200,200 0 0 0 691.76,424.33 L 654.01,442.74 A 158,158 0 0 1 654.01,581.26 Z" fill="#FFFFFF"/>
<path d="M 424.33,691.76 A 200,200 0 0 0 599.67,691.76 L 581.26,654.01 A 158,158 0 0 1 442.74,654.01 Z" fill="#FFFFFF"/>
<path d="M 332.24,424.33 A 200,200 0 0 0 332.24,599.67 L 369.99,581.26 A 158,158 0 0 1 369.99,442.74 Z" fill="#FFFFFF"/>
<path d="M 181.07,181.07 L 411.42,456.25 L 383.68,428.67 L 383.66,383.66 L 428.67,383.68 L 456.25,411.42 Z" fill="#71CA0A"/>
<path d="M 892.42,131.58 L 567.75,411.42 L 595.33,383.68 L 640.34,383.66 L 640.32,428.67 L 612.58,456.25 Z" fill="#03B7A6"/>
<path d="M 830.20,830.20 L 612.58,567.75 L 640.32,595.33 L 640.34,640.34 L 595.33,640.32 L 567.75,612.58 Z" fill="#0162E3"/>
<path d="M 149.96,874.04 L 456.25,612.58 L 428.67,640.32 L 383.66,640.34 L 383.68,595.33 L 411.42,567.75 Z" fill="#7739F1"/>
</svg>
